<?xml version="1.0" encoding="utf-8"?>
<!-- Generator: Adobe Illustrator 19.0.0, SVG Export Plug-In . SVG Version: 6.00 Build 0)  -->
<svg version="1.1" id="Layer_1" xmlns="http://www.w3.org/2000/svg" xmlns:xlink="http://www.w3.org/1999/xlink" x="0px" y="0px"
	 viewBox="0 0 792 792" style="enable-background:new 0 0 792 792;" xml:space="preserve">
<style type="text/css">
	.st0{fill:none;stroke:#5D5769;stroke-width:2.8346;stroke-miterlimit:10;}
</style>
<rect class="st0" width="792" height="792"/>
<path id="XMLID_92_" d="M404.3,325.6c-103.3,0-187,67.1-187,216.8s83.7,226.2,187,226.2s187-76.6,187-226.2S507.6,325.6,404.3,325.6
	z M535,654.9l-26.1-26.1l49-49C554.3,609.1,546.4,634.1,535,654.9z M251,582.7l46.7,46.7L273.1,654C262.4,634,254.7,610.3,251,582.7
	z M271.6,437.3l25.9,25.9l-47.3,47.3C253.4,481.7,260.8,457.4,271.6,437.3z M260.2,546.2l60.1-60.1l60.3,60.3l-60.1,60.1
	L260.2,546.2z M343.2,463.2l59.8-59.8l60.3,60.3l-59.8,59.8L343.2,463.2z M403.6,569.2l59.6,59.6l-60.1,60.1l-59.6-59.6L403.6,569.2
	z M426.4,546.4l59.8-59.8l59.6,59.6L486,606L426.4,546.4z M558.7,513.3l-49.6-49.6l27.4-27.4C547.9,457.3,555.6,482.9,558.7,513.3z
	 M517.6,409.5l-31.4,31.4l-60.3-60.3l14.5-14.5C470.4,372.2,497.1,386.5,517.6,409.5z M366.1,366.5l14,14l-59.7,59.8l-30.1-30
	C310.4,387.3,336.6,373,366.1,366.5z M291.6,681.2l29-29l59.6,59.6l-15.1,15.1C336.6,719.8,311.3,704.5,291.6,681.2z M441.5,727.4
	L426,711.9l60.1-60.1l30.3,30.3C496.3,705.4,470.5,720.6,441.5,727.4z"/>
<path id="XMLID_104_" d="M490.1,240.5c36.4-40.8,40.3-96.7,40.3-96.7s-27.4,5.1-56.4,22.4c1.8-4.9,3.6-9.9,5.2-15.1
	c16.4-52.2-3.1-104.7-3.1-104.7s-21.5,14.9-40.3,41c-9.8-37.5-31-64-31-64s-21.3,28.4-29.5,67.5c-19.4-28.2-42.7-44.5-42.7-44.5
	s-19.5,52.6-3.1,104.7c1.6,5.2,3.4,10.2,5.2,15.1c-28.9-17.3-56.4-22.4-56.4-22.4s3.9,55.9,40.3,96.7c2.5,2.8,5,5.5,7.5,8.1
	c-15.3,3.9-26.5,10.4-26.5,10.4s12.7,41.9,43.9,54.3c24.1,9.5,48,9.1,60.9,0.4c12.9,8.7,36.8,9.1,60.9-0.4
	c31.2-12.3,43.9-54.3,43.9-54.3s-11.2-6.5-26.5-10.4C485.1,246,487.6,243.3,490.1,240.5z M403.4,220.6c0.7,0.2,1.3,0.4,2,0.6
	c1.4,4.5,3.4,8,5.8,10.5c-2.5,4.2-4.8,8.3-6.9,12.2c-2-4-4.3-8-6.9-12.2C399.9,229.1,401.9,225.3,403.4,220.6z"/>
</svg>
