<?xml version="1.0" encoding="utf-8"?>
<!-- Generator: Adobe Illustrator 19.0.0, SVG Export Plug-In . SVG Version: 6.00 Build 0)  -->
<svg version="1.1" id="Layer_1" xmlns="http://www.w3.org/2000/svg" xmlns:xlink="http://www.w3.org/1999/xlink" x="0px" y="0px"
	 viewBox="0 0 792 792" style="enable-background:new 0 0 792 792;" xml:space="preserve">
<style type="text/css">
	.st0{fill:none;stroke:#000000;stroke-width:2.8346;stroke-miterlimit:10;}
</style>
<path id="XMLID_15_" d="M646.8,488.2c-9.3-43.5-33.3-95.2-64.2-138.2c-19.3-26.9-56.9-72.1-91.8-72.1c-26.3,0-53.5,1.9-75.4,3.4
	c-13.2,0.9-24.6,1.7-31,1.7s-17.8-0.8-31-1.7c-21.9-1.5-49.1-3.4-75.4-3.4c-34.9,0-72.5,45.2-91.8,72.1
	c-30.9,43.1-54.9,94.8-64.2,138.2c-9.4,44-5,93,12.5,138.2c16.2,41.7,42,75.1,69.2,89.5c18.5,9.7,40.9,12.9,64.1,12.9
	c24,0,48.8-3.4,70.9-6.5c17.4-2.4,33.8-4.7,45.7-4.7s28.4,2.3,45.7,4.7c22.1,3,46.9,6.5,70.9,6.5c23.1,0,45.5-3.2,64.1-12.9
	c27.2-14.3,53.1-47.7,69.2-89.5C651.7,581.3,656.2,532.2,646.8,488.2z M385.6,686.4c-1.1,0-2.2-0.1-3.2-0.1
	c-8.4-1.8-21.4-15.2-32.9-48.4c-12.7-36.5-19.7-85.3-19.7-137.5s7-101,19.7-137.5c11.5-33.2,24.4-46.5,32.9-48.4
	c1.1-0.1,2.2-0.1,3.2-0.1c8.4,1.2,21.8,14.4,33.6,48.5c12.7,36.5,19.7,85.3,19.7,137.5s-7,101-19.7,137.5
	C407.3,672,394,685.2,385.6,686.4z M320,352.6c-13.8,39.7-21.4,92.2-21.4,147.8s7.6,108.1,21.4,147.8c3.6,10.2,7.3,19,11.2,26.6
	c-64.6-26.5-110.7-94.6-110.7-174.3s46.1-147.8,110.7-174.3C327.3,333.6,323.6,342.4,320,352.6z M448.7,648.1
	c13.8-39.7,21.4-92.2,21.4-147.8s-7.6-108.1-21.4-147.8c-4.5-12.9-9.3-23.5-14.2-32.2c72.9,21.1,126.9,93.8,126.9,180
	s-53.9,158.9-126.9,180C439.4,671.6,444.2,661,448.7,648.1z M218.2,688.3c-38.4-20.2-84.2-107.7-65.8-193.5
	c8.5-39.5,30.5-86.8,59.1-126.6c29.1-40.6,54.8-59.1,66.5-59.1c5.5,0,11.1,0.1,16.7,0.2c-17,10-32.7,22.6-46.7,37.8
	c-37.8,41-58.6,95.4-58.6,153.2s20.8,112.2,58.6,153.2c16,17.4,34.3,31.5,54.1,42C271.2,698.8,239.4,699.5,218.2,688.3z
	 M550.5,688.3c-18.7,9.8-45.5,10.5-72.7,8.3c20.6-10.6,39.5-25.1,56.1-43c37.8-41,58.6-95.4,58.6-153.2s-20.8-112.2-58.6-153.2
	c-14.1-15.3-30-28.1-47.1-38.1c1.3,0,2.6,0,3.9,0c11.6,0,37.4,18.5,66.5,59.1c28.5,39.8,50.6,87.1,59.1,126.6
	C634.7,580.6,588.9,668.1,550.5,688.3z"/>
<path id="XMLID_7_" d="M435,271.5h-31.2c0-10.7-8.7-19.5-19.5-19.5s-19.5,8.7-19.5,19.5h-31.2c0-27.9,22.7-50.7,50.7-50.7
	S435,243.5,435,271.5z"/>
<polygon id="XMLID_8_" points="399.9,236.4 368.7,236.4 378.3,131.5 390.8,131.5 "/>
<rect class="st0" width="792" height="792"/>
</svg>
