<?xml version="1.0" encoding="utf-8"?>
<!-- Generator: Adobe Illustrator 19.0.0, SVG Export Plug-In . SVG Version: 6.00 Build 0)  -->
<svg version="1.1" id="Layer_1" xmlns="http://www.w3.org/2000/svg" xmlns:xlink="http://www.w3.org/1999/xlink" x="0px" y="0px"
	 viewBox="0 0 792 792" style="enable-background:new 0 0 792 792;" xml:space="preserve">
<style type="text/css">
	.st0{fill:none;stroke:#000000;stroke-width:28.3465;stroke-miterlimit:10;}
</style>
<g id="XMLID_8_">
	<path id="XMLID_9_" d="M190.5,629.1l32.2-3.9l8.6-28.4l7.9,9.4l-6,18.7l19.4-3l7.9,9.3l-29.7,4l-9,30.8l-8.2-9.7l6.3-20.4
		l-21.2,2.8L190.5,629.1z"/>
</g>
<path id="XMLID_12_" d="M733.3,611.4c1.1-7.3,1.6-14.9,1.6-22.5c0-85.3-69.2-154.5-154.5-154.5c-11,0-21.7,1.2-32.1,3.3
	c8.2-12.6,13-27.6,13-43.7c0-44.2-35.8-80-80-80c-44.2,0-80,35.8-80,80c0,0.5,0,1,0,1.6c-20.5-9.1-43.1-14.1-66.9-14.1
	c-78.5,0-144.2,54.8-160.9,128.3c-10-2.4-20.4-3.7-31.1-3.7C70.4,506.1,12,564.5,12,636.5S70.4,767,142.5,767h555.8
	c45.1,0,81.7-36.6,81.7-81.7C780,652.7,760.9,624.6,733.3,611.4z M81.3,575l-4.8-26.5l26.5-4.8l4.8,26.5L81.3,575z M296.2,408
	l26.3,5.6l-5.6,26.3l-26.3-5.6L296.2,408z M286.2,626.6l-75.6,63.9c-5.7,4.8-14.2,4.1-19-1.6l-28.4-33.6c-4.8-5.7-4.1-14.2,1.6-19
	l75.6-63.9c5.7-4.8,14.2-4.1,19,1.6l28.4,33.6C292.6,613.3,291.8,621.8,286.2,626.6z M285.7,597.7l-19.6-23.2l23.2-19.6l19.6,23.2
	L285.7,597.7z M335.4,720.1l-19-19l19-19l19,19L335.4,720.1z M565.7,572.2l22.8,14.3l-14.3,22.8L551.5,595L565.7,572.2z M483.2,344
	l26.8,2.4l-2.4,26.8l-26.8-2.4L483.2,344z M410.7,500.5l24.9-10.3l10.3,24.9l-24.9,10.3L410.7,500.5z M676.5,682.9
	c0,0-25.3,12.8-27.8,22.8c-2.5,10,13.5,33.4,13.5,33.4c-1.6,6.2-6.8,8.9-9.5,5l-24-36c-0.8-1.2-1.1-2.7-1.2-4.2l-25.2-6.4l-7,27.5
	l-6.1-1.6l7-27.5l-25.2-6.4l-8.5,33.4l-6.1-1.6l8.5-33.4l-25.8-6.6l-8.5,33.4l-6.1-1.6l8.5-33.4l-28.8-7.3l-8.5,33.4l-6.1-1.6
	l8.5-33.4l-22.8-5.8l-6.3,24.9c-1.6,6.2-6.8,8.9-9.5,5l-24-36c-2.6-4-0.7-11.7,3.5-13.9l38.3-20.2c4.2-2.2,7.5,2.7,5.9,8.9
	l-6.3,24.9l22.8,5.8l8.5-33.4l6.1,1.6l-8.5,33.4l28.8,7.3l8.5-33.4l6.1,1.6l-8.5,33.4l25.8,6.6l8.5-33.4l6.1,1.6l-8.5,33.4l25.2,6.4
	l7-27.5l6.1,1.6l-7,27.5l25.2,6.4c0.8-1.4,1.8-2.5,3.1-3.2l38.3-20.2C674.7,671.8,678,676.8,676.5,682.9z M667,555l-2-26.8l26.8-2
	l2,26.8L667,555z"/>
<path id="XMLID_2_" class="st0" d="M234.4,490.3c0,0-122-94.3-62-154.3s135,52,53,52s-148,11.6-149-79"/>
<path id="XMLID_1_" class="st0" d="M251,50c9.3,16.1,11.3,28.7,11.3,50.5s-11.3,23-11.3,64.3c0,0-1.3,18.4,11.3,40.2"/>
<path id="XMLID_4_" class="st0" d="M357.2,50c9.3,16.1,11.3,28.7,11.3,50.5s-11.3,23-11.3,64.3c0,0-1.3,18.4,11.3,40.2"/>
<path id="XMLID_5_" class="st0" d="M462.8,50c9.3,16.1,11.3,28.7,11.3,50.5s-11.3,23-11.3,64.3c0,0-1.3,18.4,11.3,40.2"/>
<path id="XMLID_7_" class="st0" d="M559,50c9.3,16.1,11.3,28.7,11.3,50.5s-11.3,23-11.3,64.3c0,0-1.3,18.4,11.3,40.2"/>
</svg>
