<?xml version="1.0" encoding="utf-8"?>
<!-- Generator: Adobe Illustrator 19.0.0, SVG Export Plug-In . SVG Version: 6.00 Build 0)  -->
<svg version="1.1" id="Layer_1" xmlns="http://www.w3.org/2000/svg" xmlns:xlink="http://www.w3.org/1999/xlink" x="0px" y="0px"
	 viewBox="0 0 792 792" style="enable-background:new 0 0 792 792;" xml:space="preserve">
<style type="text/css">
	.st0{fill:none;stroke:#000000;stroke-width:2.8346;stroke-miterlimit:10;}
</style>
<path id="XMLID_177_" d="M495.2,459.2c-17.1-11.8-45-33.1-53.8-43.7c-5-6-8.4-10.5-11.1-14.1c-6.7-8.9-15.9-21.2-34.2-21.2
	c-18.3,0-27.5,12.2-34.2,21.2c-2.7,3.6-6.1,8.1-11.1,14.1c-9.3,11.1-38,32.7-53.9,43.7c-0.7,0.4-1.3,0.9-2,1.4l-18.7,15.1
	c-35.6,33.1-56.3,79.7-56.3,129.1c0,97.1,79,176.1,176.1,176.1s176.1-79,176.1-176.1C572.1,546.5,543.4,492.1,495.2,459.2z
	 M396,750.9c-80.7,0-146.1-65.4-146.1-146.1c0-50.2,25.3-94.5,63.9-120.8l0,0c0,0,44.4-30.7,59.9-49.2s17.2-24.5,22.3-24.5
	c5.2,0,6.8,6,22.3,24.5s59.9,49.2,59.9,49.2l0,0c38.6,26.3,63.9,70.6,63.9,120.8C542.1,685.5,476.7,750.9,396,750.9z"/>
<path d="M396,749.3l-3.5,0c-41.9-1-78-20.1-102-54.1c-25.1-35.5-32.7-82.9-19.3-120.7c16.6-46.9,118.1-143.2,122.4-147.3l2.4-2.3
	l2.4,2.3c4.3,4.1,105.8,100.4,122.4,147.3c13.4,37.8,5.8,85.2-19.3,120.7C476.8,730.1,439.4,749.3,396,749.3z M396,434.7
	c-15.8,15.2-103.5,100.8-118.2,142.2c-12.6,35.7-5.4,80.6,18.4,114.2c22.6,32,56.7,50.1,96.2,51.1v-3c-6.7-2.6-26.6-11.1-46.7-26.3
	c-32.4-24.5-49.6-54.8-49.6-87.6c0-32.8,16.4-74.4,48.7-123.5c23.9-36.4,48.2-63.6,48.5-63.9l2.6-2.9l2.6,2.9
	c0.2,0.3,24.5,27.5,48.5,63.9c32.3,49.1,48.7,90.7,48.7,123.5c0,32.8-17.1,63.1-49.6,87.6c-20.1,15.2-40,23.7-46.7,26.3v3
	c39.5-1,73.6-19.1,96.2-51.1c23.8-33.7,31-78.5,18.4-114.2C499.5,535.5,411.8,449.9,396,434.7z M399.5,686.7v44.9
	c8.1-3.4,25.5-11.4,42.6-24.4c30.9-23.4,46.6-51,46.6-81.9c0-68.1-77.4-161.7-92.8-179.6c-15.4,17.9-92.8,111.5-92.8,179.6
	c0,30.9,15.7,58.5,46.6,81.9c17.2,13,34.5,21,42.6,24.4v-44.9c-8.9-6.1-50.3-36.5-50.3-73.4c0-39.5,48.7-122.3,50.8-125.8l3-5.2
	l3,5.2c2.1,3.5,50.8,86.3,50.8,125.8C449.8,650.2,408.5,680.6,399.5,686.7z M399.5,641.9v36.1c12.7-9.6,43.2-35.5,43.2-64.6
	c0-32.1-35.9-97.8-46.8-116.9c-10.8,19.1-46.8,84.8-46.8,116.9c0,29.1,30.5,55.1,43.2,64.6v-36.1c-1.3-3.9-8.3-25.7-8.3-39.6
	c0-16.2,9.5-22.7,9.9-23l2-1.3l2,1.3c0.4,0.3,9.9,6.7,9.9,23C407.8,616.1,400.8,638,399.5,641.9z M396,587.2
	c-2,2.4-4.8,7.1-4.8,15.1c0,7.7,2.5,18.6,4.8,26.7c2.2-8.1,4.8-19,4.8-26.7C400.8,594.3,398,589.6,396,587.2z"/>
<path id="XMLID_181_" d="M396,26.7c-94.3,0-171,76.7-171,171s76.7,171,171,171s171-76.7,171-171S490.3,26.7,396,26.7z M396,338.6
	c-77.9,0-141-63.1-141-141s63.1-141,141-141s141,63.1,141,141S473.9,338.6,396,338.6z"/>
<path id="XMLID_186_" d="M444,139L444,139l-29.6-7.2c-1.5-4-4.3-7.3-7.9-9.5L396,78.8l0,0l0,0l0,0l0,0l-10.6,43.4
	c-3.5,2.2-6.3,5.6-7.9,9.5L348,139l0,0l0,0l0,0l0,0l29.6,7.2c1.7,4.4,4.9,8,9,10.2l9.5,75.1l0,0l0,0l0,0l0,0l9.5-75.1
	c4.1-2.2,7.3-5.8,9-10.2L444,139L444,139L444,139L444,139z"/>
<rect class="st0" width="792" height="792"/>
</svg>
