<?xml version="1.0" encoding="utf-8"?>
<!-- Generator: Adobe Illustrator 19.0.0, SVG Export Plug-In . SVG Version: 6.00 Build 0)  -->
<svg version="1.1" id="Layer_1" xmlns="http://www.w3.org/2000/svg" xmlns:xlink="http://www.w3.org/1999/xlink" x="0px" y="0px"
	 viewBox="0 0 792 792" style="enable-background:new 0 0 792 792;" xml:space="preserve">
<style type="text/css">
	.st0{fill:#5D5769;}
</style>
<path id="XMLID_22_" class="st0" d="M730.8,722.5c-1.7-15-10.6-28.1-26.2-39c-7.3-5.1-30.3-23.7-54.4-45.6
	c-31.1-28.1-44-43.4-46.9-48.1c-2.1-7.1-5.3-24.7-8.4-41.7c-6.3-34.6-14.1-77.7-25.3-111.5c-13.5-40.8-39.9-68.4-57.4-86.7
	c-3.2-3.4-7.5-7.8-9.6-10.4c-1.1-6.3-2.2-20.6-3-30.4c-1.9-24.4-3.3-39.9-6.9-50.7c-5.1-15.4-16.6-30.2-30.7-39.5
	c-6.4-4.2-13.1-7.4-20.2-9.4c-3.5-6.6-10-19.3-12.6-28.8c0.6,0,1.2,0.1,1.9,0.1c7.6,0,17.1-2.6,19.9-12.1c3.6-12.1-3-18.1-6.9-19.6
	l-0.1,0c-1.7-0.6-43-15.3-62.4-17.6c-19.1-2.3-58.6,5.4-62.8,6.3c-5.7,0.7-13.7,5.1-13.7,14.8c0,9.5,7.8,14.8,12.5,16.4l1.3,0.4
	l8.7-0.3c-5.3,9.9-15.9,22.3-19.8,26.7c-16.1,0.6-38.1,8.4-53.6,40.7c-4,8.4-7.8,15.4-11.8,22.9c-5.8,10.8-12.5,23.1-21.1,41.8
	c-6.8,14.9-23.9,37.6-40.3,59.5c-13.3,17.7-27,36-38,53.4c-22.4,35.6-31.5,105.4-37.5,168.9c-0.4,4.6-0.8,8.5-1.1,11.1
	c-0.1,1.1-0.3,2.4-0.4,3.9c-9.4,82.8-5.1,125.6,15,147.6c9.1,9.9,21.3,15.3,34.5,15c2.6-0.1,5.2-0.3,7.8-0.8
	c19.6-3.6,34-20.7,56.7-67.7c13.6-28.2,30.3-67.8,49.6-117.7c22.8-59.2,46.1-124.4,64.6-177.6c1.5,29.4,6,66.9,17.5,102.8
	C375,579.1,417.6,638.4,492.1,698c63.7,51,130.3,63.2,155.4,67.8c2.1,0.4,4.6,0.9,5.9,1.1c9.3,3.4,32.4,9.2,49.9,3.4
	c9.5-3.1,17-9.5,21.2-17.8C727.1,747.3,732.4,736.6,730.8,722.5z M319.1,152.5c0-0.1,0-0.1,0-0.2c0.3-0.2,0.9-0.4,1.4-0.5l0.7-0.1
	c11.4-2.3,44.1-7.9,58.6-6.2c16.1,1.9,50.8,13.9,58,16.4c0,0.5-0.1,1.4-0.5,2.8c-0.5,1.6-5.5,2.1-8.9,1.7l-47-13.3l-60.3,1.9
	C320.3,154.6,319.1,153.6,319.1,152.5z M155.7,730.3c-39.4,7.2-24.3-109-21.7-132.9c2.6-23.9,9.7-128.4,34.2-167.3
	c24.5-38.9,66.1-85.7,80.2-116.4c14.1-30.7,22.3-42.7,32.7-64.2c11.3-23.6,26.4-29.1,46.6-18.9c20.2,10.3,19.7,35.6,14.6,45.4
	C337.1,285.8,195.1,723.1,155.7,730.3z M697.7,739c-3.4,6.8-25.9,3-34.7-0.5s-82.2-8-152.1-63.9C441,618.7,401.9,564.8,378,490.3
	c-23.9-74.4-16.7-163.6-11.4-185.6c6.2-25.4,9.8-55.2,40.7-65.4c30.8-10.2,51.6,12.8,56.8,28.5c5.2,15.7,5.6,69,10.3,82.9
	c4.6,14,49.4,43.1,66.6,95.3c17.3,52.1,26.9,132.9,34,154.2c7.1,21.3,93.3,94.6,112.4,107.9C706.5,721.4,701.1,732.1,697.7,739z"/>
<path id="XMLID_4_" class="st0" d="M431,139.3c-1.9,0-3.6-0.2-5.1-0.4l-0.8-0.2l-45.4-12.8l-61.1,2l-1.3-0.4
	c-4.6-1.6-12.5-7-12.5-16.4c0-9.6,8.1-14,13.7-14.8c4.2-0.8,43.7-8.6,62.8-6.3c19.4,2.3,60.7,17,62.4,17.6l0.1,0
	c4,1.5,10.5,7.5,6.9,19.6C448.2,136.7,438.6,139.3,431,139.3z M428.5,125c3.3,0.4,8.4-0.1,8.9-1.7c0.4-1.4,0.5-2.3,0.5-2.8
	c-7.2-2.5-42-14.5-58-16.4c-14.6-1.7-47.3,3.9-58.6,6.2l-0.7,0.1c-0.5,0.1-1.1,0.3-1.4,0.5c0,0,0,0.1,0,0.2c0,1.1,1.3,2.1,2.2,2.6
	l60.3-1.9L428.5,125z"/>
<path id="XMLID_17_" class="st0" d="M431,97.8c-1.9,0-3.6-0.2-5.1-0.4l-0.8-0.2l-45.4-12.8l-61.1,2l-1.3-0.4
	c-4.6-1.6-12.5-7-12.5-16.4c0-9.6,8.1-14,13.7-14.8c4.2-0.8,43.7-8.6,62.8-6.3c19.4,2.3,60.7,17,62.4,17.6l0.1,0
	c4,1.5,10.5,7.5,6.9,19.6C448.2,95.2,438.6,97.8,431,97.8z M428.5,83.5c3.3,0.4,8.4-0.1,8.9-1.7c0.4-1.4,0.5-2.3,0.5-2.8
	c-7.2-2.5-42-14.5-58-16.4c-14.6-1.7-47.3,3.9-58.6,6.2l-0.7,0.1c-0.5,0.1-1.1,0.3-1.4,0.5c0,0,0,0.1,0,0.2c0,1.1,1.3,2.1,2.2,2.6
	l60.3-1.9L428.5,83.5z"/>
</svg>
