<?xml version="1.0" encoding="utf-8"?>
<!-- Generator: Adobe Illustrator 19.0.0, SVG Export Plug-In . SVG Version: 6.00 Build 0)  -->
<svg version="1.1" id="Layer_1" xmlns="http://www.w3.org/2000/svg" xmlns:xlink="http://www.w3.org/1999/xlink" x="0px" y="0px"
	 viewBox="0 0 792 792" style="enable-background:new 0 0 792 792;" xml:space="preserve">
<style type="text/css">
	.st0{fill:none;stroke:#000000;stroke-width:28.3465;stroke-miterlimit:10;}
</style>
<polyline id="XMLID_15_" class="st0" points="0,59.5 229.3,59.5 229.3,245.2 0,245.2 "/>
<path id="XMLID_1_" class="st0" d="M337,278h-93.2c-8,0-14.4-6.5-14.4-14.4V41.1c0-8,6.5-14.4,14.4-14.4H337c8,0,14.4,6.5,14.4,14.4
	v222.4C351.4,271.5,344.9,278,337,278z"/>
<path id="XMLID_17_" class="st0" d="M351.4,85.5h71.7c0,0,59.9-0.1,60.6,54.1c0.8,59.4,0,368.3,0,368.3"/>
<path id="XMLID_16_" class="st0" d="M351.4,263.5v220.1c0,0-1.7,52.1-66.7,52.1s-94.5,0-104.3,0c-9.8,0-30.3,4-30.3,27.6
	c0,23.6,27.2,22.3,27.2,22.3h118.5c0,0,40.3-0.1,40.3,40.3s25.7,40.4,41.7,40.4"/>
<line id="XMLID_19_" class="st0" x1="440.2" y1="320.8" x2="440.2" y2="569.9"/>
<line id="XMLID_20_" class="st0" x1="395.6" y1="257" x2="395.6" y2="506.1"/>
<path id="XMLID_25_" class="st0" d="M792,719c-52.3,0-59.2,48-132,48s-79.7-48-132-48s-59.2,48-132,48s-79.7-48-132-48
	s-59.2,48-132,48S52.3,719,0,719"/>
<path id="XMLID_4_" class="st0" d="M349.8,474.1c-33.5-13.8-47.4-39.6-85.8-39.6c-52.3,0-59.2,48-132,48s-79.7-48-132-48"/>
<path id="XMLID_3_" class="st0" d="M792,434.4c-52.3,0-59.2,48-132,48s-79.7-48-132-48c-18.9,0-31.8,6.2-44.1,14.2"/>
</svg>
