<?xml version="1.0" encoding="utf-8"?>
<!-- Generator: Adobe Illustrator 19.0.0, SVG Export Plug-In . SVG Version: 6.00 Build 0)  -->
<svg version="1.1" id="Layer_1" xmlns="http://www.w3.org/2000/svg" xmlns:xlink="http://www.w3.org/1999/xlink" x="0px" y="0px"
	 viewBox="0 0 792 792" style="enable-background:new 0 0 792 792;" xml:space="preserve">
<style type="text/css">
	.st0{fill:#5D5769;}
</style>
<path id="XMLID_8_" class="st0" d="M715.7,479.7c-5.5-35.3-19.4-65.2-40.1-86.6c-25.5-26.3-59.8-39.6-102.1-39.6
	c-11.1,0-23,1-35.1,2.9c-11.5,1.8-22.4,4.3-32.4,7.5c-4.3-14.4-13-41.6-24.5-69.2c-23.7-56.9-46.6-84.6-69.7-84.6
	c-12.5,0-29,7.9-50.3,24c-15.7,12-34.2,28.6-55,49.3c-23.1,23.1-44,46.4-55.7,59.7c-5.3-0.3-10.8-0.4-16.4-0.4
	c-55.5,0-98,15.6-126.3,46.4c-23.6,25.6-36.1,61.1-36.1,102.7c0,44.3,17.9,83.8,50.4,111.1c29.9,25.2,70.8,39,115.3,39
	c44.5,0,85.4-13.9,115.3-39c32.5-27.4,50.4-66.8,50.4-111.1c0-41.7-13.3-77.5-38.3-103.3c-22.1-22.8-52.3-37.1-90-42.9
	c11.8-13.2,28-30.8,45.5-48.3c60.9-60.9,84-67.5,91.2-67.5c5,0,23.3,5.2,51.3,72.3c11.4,27.4,20.2,55.1,24.3,68.8
	c-25.3,11.4-44.7,28.3-58,50.4c-17.1,28.4-22.8,64.9-16.5,105.4c5.8,37.2,22.4,69.3,48,93c25.4,23.5,58.2,36.4,92.2,36.4
	c12.6,0,25.3-1.8,37.7-5.2c54.4-15.1,87.5-34.4,107.4-62.3C723.2,553.4,720.7,511.9,715.7,479.7z M373.4,491.9
	c0,75-60.8,120.2-135.7,120.2s-135.7-45.2-135.7-120.2c0-60.8,30.9-119.1,132.4-119.1C340.1,372.7,373.4,431.1,373.4,491.9z
	 M582.7,622c-65.6,18.3-128.7-25.7-140.2-99.8c-9.3-60.1,9.4-122,100.5-136.2c94.9-14.8,133.7,38.2,143.1,98.3
	C697.5,558.4,676.1,596,582.7,622z"/>
<path id="XMLID_5_" class="st0" d="M674.5,212.9c0,26-26,77-77.5,77s-155.5-68.5-155.5-77s104-77,155.5-77S674.5,186.9,674.5,212.9z
	"/>
</svg>
