<?xml version="1.0" encoding="utf-8"?>
<!-- Generator: Adobe Illustrator 19.0.0, SVG Export Plug-In . SVG Version: 6.00 Build 0)  -->
<svg version="1.1" id="Layer_1" xmlns="http://www.w3.org/2000/svg" xmlns:xlink="http://www.w3.org/1999/xlink" x="0px" y="0px"
	 viewBox="0 0 792 792" style="enable-background:new 0 0 792 792;" xml:space="preserve">
<style type="text/css">
	.st0{fill:#5D5769;}
</style>
<path id="XMLID_1_" class="st0" d="M268.6,696.5h-12c-5.6,0-10.2-4.6-10.2-10.2V94.5c0-5.6,4.6-10.2,10.2-10.2h12
	c5.6,0,10.2,4.6,10.2,10.2v591.9C278.8,692,274.2,696.5,268.6,696.5z"/>
<path id="XMLID_16_" class="st0" d="M370.7,696.5h-12c-5.6,0-10.2-4.6-10.2-10.2V94.5c0-5.6,4.6-10.2,10.2-10.2h12
	c5.6,0,10.2,4.6,10.2,10.2v591.9C380.8,692,376.3,696.5,370.7,696.5z"/>
<path id="XMLID_33_" class="st0" d="M314,618.2c-37.3,0-67.5,30.2-67.5,67.5s30.2,67.5,67.5,67.5s67.5-30.2,67.5-67.5
	C381.5,648.5,351.3,618.2,314,618.2z M314,721c-19.4,0-35.2-15.8-35.2-35.2s15.8-35.2,35.2-35.2s35.2,15.8,35.2,35.2
	S333.4,721,314,721z"/>
<path id="XMLID_30_" class="st0" d="M351.3,514.2c0,20.6-16.7,37.3-37.3,37.3s-37.3-16.7-37.3-37.3h-34.2c0,39.5,32,71.5,71.5,71.5
	s71.5-32,71.5-71.5H351.3z"/>
<path id="XMLID_35_" class="st0" d="M351.3,336.2c0,20.6-16.7,37.3-37.3,37.3s-37.3-16.7-37.3-37.3h-34.2c0,39.5,32,71.5,71.5,71.5
	s71.5-32,71.5-71.5H351.3z"/>
<path id="XMLID_37_" class="st0" d="M351.3,155.4c0,20.6-16.7,37.3-37.3,37.3s-37.3-16.7-37.3-37.3h-34.2c0,39.5,32,71.5,71.5,71.5
	s71.5-32,71.5-71.5H351.3z"/>
<path id="XMLID_49_" class="st0" d="M433.5,593.8h-13.8c-5.1,0-9.3-4.2-9.3-9.3V93.6c0-5.1,4.2-9.3,9.3-9.3h13.8
	c5.1,0,9.3,4.2,9.3,9.3v490.9C442.8,589.6,438.6,593.8,433.5,593.8z"/>
<path id="XMLID_48_" class="st0" d="M535.5,593.8h-13.8c-5.1,0-9.3-4.2-9.3-9.3V93.6c0-5.1,4.2-9.3,9.3-9.3h13.8
	c5.1,0,9.3,4.2,9.3,9.3v490.9C544.8,589.6,540.7,593.8,535.5,593.8z"/>
<path id="XMLID_45_" class="st0" d="M478,515.5c-37.3,0-67.5,30.2-67.5,67.5s30.2,67.5,67.5,67.5s67.5-30.2,67.5-67.5
	S515.3,515.5,478,515.5z M478,618.2c-19.4,0-35.2-15.8-35.2-35.2s15.8-35.2,35.2-35.2s35.2,15.8,35.2,35.2
	C513.2,602.5,497.4,618.2,478,618.2z"/>
<path id="XMLID_43_" class="st0" d="M515.3,411.4c0,20.6-16.7,37.3-37.3,37.3s-37.3-16.7-37.3-37.3h-34.2c0,39.5,32,71.5,71.5,71.5
	s71.5-32,71.5-71.5H515.3z"/>
<path id="XMLID_41_" class="st0" d="M515.3,233.4c0,20.6-16.7,37.3-37.3,37.3s-37.3-16.7-37.3-37.3h-34.2c0,39.5,32,71.5,71.5,71.5
	s71.5-32,71.5-71.5H515.3z"/>
</svg>
