<?xml version="1.0" encoding="utf-8"?>
<!-- Generator: Adobe Illustrator 19.0.0, SVG Export Plug-In . SVG Version: 6.00 Build 0)  -->
<svg version="1.1" id="Layer_1" xmlns="http://www.w3.org/2000/svg" xmlns:xlink="http://www.w3.org/1999/xlink" x="0px" y="0px"
	 viewBox="0 0 792 792" style="enable-background:new 0 0 792 792;" xml:space="preserve">
<style type="text/css">
	.st0{fill:#5D5769;}
</style>
<path id="XMLID_17_" class="st0" d="M416.9,583.7c0,21.5-17.4,38.8-38.8,38.8s-38.8-17.4-38.8-38.8l-7.7-3.8
	c0,25.7,20.8,46.5,46.5,46.5s46.5-20.8,46.5-46.5L416.9,583.7z"/>
<path id="XMLID_152_" class="st0" d="M415.3,492.8c0,20.5-16.6,37.2-37.2,37.2c-20.5,0-37.2-16.6-37.2-37.2l-7.3-3.7
	c0,24.6,19.9,44.5,44.5,44.5c24.6,0,44.5-19.9,44.5-44.5L415.3,492.8z"/>
<path id="XMLID_153_" class="st0" d="M410.4,399.9c0,17.7-14.3,32-32,32s-32-14.3-32-32l-6.3-3.1c0,21.1,17.1,38.3,38.3,38.3
	s38.3-17.1,38.3-38.3L410.4,399.9z"/>
<path id="XMLID_39_" class="st0" d="M217.3,522.4c-4.4,21-25,34.4-46,30c-21-4.4-34.4-25-30-46l-6.7-5.3
	c-5.3,25.1,10.8,49.8,35.9,55.1s49.8-10.8,55.1-35.9L217.3,522.4z"/>
<path id="XMLID_14_" class="st0" d="M234.4,433.1c-4.2,20.1-23.9,32.9-44,28.7c-20.1-4.2-32.9-23.9-28.7-44l-6.4-5.1
	c-5.1,24,10.3,47.6,34.3,52.7c24,5.1,47.6-10.3,52.7-34.3L234.4,433.1z"/>
<path id="XMLID_13_" class="st0" d="M247.5,341.6c-3.6,16.9-20.2,27.8-37.2,24.2s-27.8-20.2-24.2-37.2l-5.4-4.3
	c-4.3,20.3,8.7,40.2,29,44.5c20.3,4.3,40.2-8.7,44.5-29L247.5,341.6z"/>
<path id="XMLID_149_" class="st0" d="M576,261.9c9.5-41,3.7-79.7-16.1-109.2c-17.3-25.7-44-42.2-77.2-47.5L155.7,58l-2.8,19.6
	l110,15.9l-2.4,11.8c-6.5-0.3-16.4,1.1-25.8,10.2c-3.2,3.1-6.1,6.8-9.3,11.7c-4.4,6.8-9.2,16.1-14.9,28.4c-10,22-22,52.6-34.7,88.6
	c-27.7,78.7-52.6,164.9-66.4,230.5c-13.3,63.2-14.6,113.4-3.9,149c9.8,32.7,22.5,66.7,27.6,69.4l7.6,4l8.5-0.6
	c5.8-0.4,31.1-26.4,53.3-52.3c24.2-28.3,43.3-74.7,56.6-137.9c13.7-65.2,25.7-154.1,32.1-237.8c2.9-37.9,4.2-70.8,4-95
	c-0.2-13.5-0.8-23.9-2-31.9c-0.9-5.7-2-10.3-3.6-14.3c-4.5-11.4-12.1-16.8-18.1-19.5l2.6-12.8l88.2,12.7l5.8,60
	c-5.7,1.9-12.5,5.8-18.1,14c-2.5,3.6-4.6,7.9-6.7,13.4c-2.9,7.6-5.7,17.7-8.7,30.9c-5.3,23.5-10.7,56-15.7,93.8
	c-10.9,82.8-17.4,172.2-17.4,239.3c0,64.6,9.1,114,26.9,146.6c16.4,29.9,35.8,60.6,41.3,62.2l8.2,2.3l8.2-2.3
	c5.6-1.6,25-32.3,41.3-62.2c17.9-32.7,26.9-82,26.9-146.6c0-66.6-6.6-156.1-17.7-239.3c-5-37.7-10.4-70.1-15.7-93.7
	c-2.9-13.1-5.7-23.2-8.5-30.8c-2-5.4-4.1-9.7-6.4-13.3c-6.2-9.4-14.1-13.4-20.2-15l-5.5-56.8l99.1,14.3c27.6,4.5,49.7,17.9,63.8,39
	c16.7,24.9,21.4,58.1,13.2,93.7c-9,39.1-6.2,75.6,8.3,105.4c16.5,34,47.5,57.2,89.7,67.2l4.6-19.3C577,391.3,562.3,321.1,576,261.9z
	 M229.8,500.1C200.2,640.6,152,644,152,644s-42.8-22.6-13.2-163c29.6-140.5,104.5-349,120.4-345.7
	C274.5,138.5,259.5,359.7,229.8,500.1z M424.6,559.3c0,143.6-46.5,156.8-46.5,156.8s-46.5-13.3-46.5-156.8s30.2-363.1,46.5-363.1
	C393.7,196.3,424.6,415.8,424.6,559.3z"/>
</svg>
