<?xml version="1.0" encoding="utf-8"?>
<!-- Generator: Adobe Illustrator 19.0.0, SVG Export Plug-In . SVG Version: 6.00 Build 0)  -->
<svg version="1.1" id="Layer_1" xmlns="http://www.w3.org/2000/svg" xmlns:xlink="http://www.w3.org/1999/xlink" x="0px" y="0px"
	 viewBox="0 0 792 792" style="enable-background:new 0 0 792 792;" xml:space="preserve">
<style type="text/css">
	.st0{fill:#5D5769;}
</style>
<path id="XMLID_182_" class="st0" d="M363.7,335.7h-9.3c-6.3,0-11.5-5.2-11.5-11.5v-2.9c0-6.3,5.2-11.5,11.5-11.5h9.3
	c6.3,0,11.5,5.2,11.5,11.5v2.9C375.2,330.6,370,335.7,363.7,335.7z"/>
<path id="XMLID_63_" class="st0" d="M363.7,403.4h-9.3c-6.3,0-11.5-5.2-11.5-11.5V389c0-6.3,5.2-11.5,11.5-11.5h9.3
	c6.3,0,11.5,5.2,11.5,11.5v2.9C375.2,398.2,370,403.4,363.7,403.4z"/>
<path id="XMLID_65_" class="st0" d="M363.7,486.7h-9.3c-6.3,0-11.5-5.2-11.5-11.5v-2.9c0-6.3,5.2-11.5,11.5-11.5h9.3
	c6.3,0,11.5,5.2,11.5,11.5v2.9C375.2,481.6,370,486.7,363.7,486.7z"/>
<path id="XMLID_75_" class="st0" d="M271.3,446.7H262c-6.3,0-11.5-5.2-11.5-11.5v-2.9c0-6.3,5.2-11.5,11.5-11.5h9.3
	c6.3,0,11.5,5.2,11.5,11.5v2.9C282.8,441.6,277.7,446.7,271.3,446.7z"/>
<path id="XMLID_83_" class="st0" d="M529,446.7h-9.3c-6.3,0-11.5-5.2-11.5-11.5v-2.9c0-6.3,5.2-11.5,11.5-11.5h9.3
	c6.3,0,11.5,5.2,11.5,11.5v2.9C540.5,441.6,535.3,446.7,529,446.7z"/>
<path id="XMLID_84_" class="st0" d="M492.3,377.6H483c-6.3,0-11.5-5.2-11.5-11.5v-2.9c0-6.3,5.2-11.5,11.5-11.5h9.3
	c6.3,0,11.5,5.2,11.5,11.5v2.9C503.8,372.4,498.7,377.6,492.3,377.6z"/>
<path id="XMLID_85_" class="st0" d="M311.7,377.6h-9.3c-6.3,0-11.5-5.2-11.5-11.5v-2.9c0-6.3,5.2-11.5,11.5-11.5h9.3
	c6.3,0,11.5,5.2,11.5,11.5v2.9C323.2,372.4,318,377.6,311.7,377.6z"/>
<path id="XMLID_67_" class="st0" d="M363.7,527.1h-9.3c-6.3,0-11.5-5.2-11.5-11.5v-2.9c0-6.3,5.2-11.5,11.5-11.5h9.3
	c6.3,0,11.5,5.2,11.5,11.5v2.9C375.2,521.9,370,527.1,363.7,527.1z"/>
<path id="XMLID_69_" class="st0" d="M363.7,559.1h-9.3c-6.3,0-11.5-5.2-11.5-11.5v-2.9c0-6.3,5.2-11.5,11.5-11.5h9.3
	c6.3,0,11.5,5.2,11.5,11.5v2.9C375.2,553.9,370,559.1,363.7,559.1z"/>
<path id="XMLID_40_" class="st0" d="M429.2,335.7h-9.3c-6.3,0-11.5-5.2-11.5-11.5v-2.9c0-6.3,5.2-11.5,11.5-11.5h9.3
	c6.3,0,11.5,5.2,11.5,11.5v2.9C440.7,330.6,435.5,335.7,429.2,335.7z"/>
<path id="XMLID_64_" class="st0" d="M429.2,403.1h-9.3c-6.3,0-11.5-5.2-11.5-11.5v-2.9c0-6.3,5.2-11.5,11.5-11.5h9.3
	c6.3,0,11.5,5.2,11.5,11.5v2.9C440.7,397.9,435.5,403.1,429.2,403.1z"/>
<path id="XMLID_66_" class="st0" d="M429.2,486.7h-9.3c-6.3,0-11.5-5.2-11.5-11.5v-2.9c0-6.3,5.2-11.5,11.5-11.5h9.3
	c6.3,0,11.5,5.2,11.5,11.5v2.9C440.7,481.6,435.5,486.7,429.2,486.7z"/>
<path id="XMLID_68_" class="st0" d="M429.2,526.4h-9.3c-6.3,0-11.5-5.2-11.5-11.5V512c0-6.3,5.2-11.5,11.5-11.5h9.3
	c6.3,0,11.5,5.2,11.5,11.5v2.9C440.7,521.2,435.5,526.4,429.2,526.4z"/>
<path id="XMLID_70_" class="st0" d="M429.2,557.2h-9.3c-6.3,0-11.5-5.2-11.5-11.5v-2.9c0-6.3,5.2-11.5,11.5-11.5h9.3
	c6.3,0,11.5,5.2,11.5,11.5v2.9C440.7,552,435.5,557.2,429.2,557.2z"/>
<path id="XMLID_71_" class="st0" d="M495.9,544.3h-9.3c-6.3,0-11.5-5.2-11.5-11.5v-2.9c0-6.3,5.2-11.5,11.5-11.5h9.3
	c6.3,0,11.5,5.2,11.5,11.5v2.9C507.3,539.1,502.2,544.3,495.9,544.3z"/>
<path id="XMLID_73_" class="st0" d="M264.8,505.3h-9.3c-6.3,0-11.5-5.2-11.5-11.5v-2.9c0-6.3,5.2-11.5,11.5-11.5h9.3
	c6.3,0,11.5,5.2,11.5,11.5v2.9C276.3,500.1,271.2,505.3,264.8,505.3z"/>
<path id="XMLID_74_" class="st0" d="M538.7,505.3h-9.3c-6.3,0-11.5-5.2-11.5-11.5v-2.9c0-6.3,5.2-11.5,11.5-11.5h9.3
	c6.3,0,11.5,5.2,11.5,11.5v2.9C550.2,500.1,545.1,505.3,538.7,505.3z"/>
<path id="XMLID_72_" class="st0" d="M300.5,544.3h-9.3c-6.3,0-11.5-5.2-11.5-11.5v-2.9c0-6.3,5.2-11.5,11.5-11.5h9.3
	c6.3,0,11.5,5.2,11.5,11.5v2.9C312,539.1,306.8,544.3,300.5,544.3z"/>
<path id="XMLID_226_" class="st0" d="M640.6,411.3c-28.4-179-109.2-331-243.8-331S193.6,206.5,153,411.3
	c-35.4,178.4,109.2,331,243.8,331S669.3,591.2,640.6,411.3z M396.7,699.2c-117.1,0-242.9-132.7-212.1-287.9
	c35.4-178.2,95-287.9,212.1-287.9s187.4,132.2,212.1,287.9C633.7,567.8,513.8,699.2,396.7,699.2z"/>
<path id="XMLID_227_" class="st0" d="M660.9,411.3c-30.8-193.8-118.2-358.4-264-358.4s-220,136.6-264,358.4
	c-38.3,193.2,118.2,358.4,264,358.4S691.9,606.1,660.9,411.3z M396.9,761c-142.3,0-295-161.2-257.6-349.7
	C182.2,194.9,254.6,61.6,396.9,61.6s227.6,160.6,257.6,349.7C684.7,601.4,539.1,761,396.9,761z"/>
</svg>
