<?xml version="1.0" encoding="utf-8"?>
<!-- Generator: Adobe Illustrator 19.0.0, SVG Export Plug-In . SVG Version: 6.00 Build 0)  -->
<svg version="1.1" id="Layer_1" xmlns="http://www.w3.org/2000/svg" xmlns:xlink="http://www.w3.org/1999/xlink" x="0px" y="0px"
	 viewBox="0 0 792 792" style="enable-background:new 0 0 792 792;" xml:space="preserve">
<style type="text/css">
	.st0{fill:#272626;}
</style>
<circle class="st0" cx="396" cy="396" r="53.3"/>
<g>
	<path class="st0" d="M223,179c47.5-37.9,107.6-60.6,173-60.6c65.4,0,125.5,22.7,173,60.6l40.4-40.4c-25.1-20.9-53-37.8-83.2-50.6
		c-41.2-17.4-85-26.3-130.2-26.3s-88.9,8.8-130.2,26.3c-30.2,12.8-58.1,29.8-83.2,50.6L223,179z"/>
	<path class="st0" d="M179,569c-37.9-47.5-60.6-107.6-60.6-173c0-65.4,22.7-125.5,60.6-173l-40.4-40.4c-20.9,25.1-37.8,53-50.6,83.2
		c-17.4,41.2-26.3,85-26.3,130.2s8.8,88.9,26.3,130.2c12.8,30.2,29.8,58.1,50.6,83.2L179,569z"/>
	<path class="st0" d="M569,613c-47.5,37.9-107.6,60.6-173,60.6S270.5,650.9,223,613l-40.4,40.4c25.1,20.9,53,37.8,83.2,50.6
		c41.2,17.4,85,26.3,130.2,26.3s88.9-8.8,130.2-26.3c30.2-12.8,58.1-29.8,83.2-50.6L569,613z"/>
	<path class="st0" d="M704.1,265.8c-12.8-30.2-29.8-58.1-50.6-83.2L613,223c37.9,47.5,60.6,107.6,60.6,173S650.9,521.5,613,569
		l40.4,40.4c20.9-25.1,37.8-53,50.6-83.2c17.4-41.2,26.3-85,26.3-130.2S721.5,307.1,704.1,265.8z"/>
</g>
</svg>
