<?xml version="1.0" encoding="utf-8"?>
<!-- Generator: Adobe Illustrator 19.0.0, SVG Export Plug-In . SVG Version: 6.00 Build 0)  -->
<svg version="1.1" id="Layer_1" xmlns="http://www.w3.org/2000/svg" xmlns:xlink="http://www.w3.org/1999/xlink" x="0px" y="0px"
	 viewBox="0 0 792 792" style="enable-background:new 0 0 792 792;" xml:space="preserve">
<style type="text/css">
	.st0{fill:#5D5769;}
	.st1{fill:none;stroke:#5D5769;stroke-width:7.0866;stroke-miterlimit:10;}
</style>
<path id="XMLID_177_" class="st0" d="M495.2,459.2c-17.1-11.8-45-33.1-53.8-43.7c-5-6-8.4-10.5-11.1-14.1
	c-6.7-8.9-15.9-21.2-34.2-21.2c-18.3,0-27.5,12.2-34.2,21.2c-2.7,3.6-6.1,8.1-11.1,14.1c-9.3,11.1-38,32.7-53.9,43.7
	c-0.7,0.4-1.3,0.9-2,1.4l-18.7,15.1c-35.6,33.1-56.3,79.7-56.3,129.1c0,97.1,79,176.1,176.1,176.1c97.1,0,176.1-79,176.1-176.1
	C572.1,546.5,543.4,492.1,495.2,459.2z M396,750.9c-80.7,0-146.1-65.4-146.1-146.1c0-50.2,25.3-94.5,63.9-120.8l0,0
	c0,0,44.4-30.7,59.9-49.2s17.2-24.5,22.3-24.5c5.2,0,6.8,6,22.3,24.5s59.9,49.2,59.9,49.2l0,0c38.6,26.3,63.9,70.6,63.9,120.8
	C542.1,685.5,476.7,750.9,396,750.9z"/>
<path id="XMLID_178_" class="st1" d="M396,641.3c0,0,8.3-24.5,8.3-39s-8.3-20-8.3-20s-8.3,5.5-8.3,20S396,641.3,396,641.3v43.5
	c0,0,50.3-32.5,50.3-71.5s-50.3-124-50.3-124s-50.3,85-50.3,124s50.3,71.5,50.3,71.5v52c0,0,96.3-34,96.3-111.5s-96.3-185-96.3-185
	s-96.3,107.5-96.3,185S396,736.8,396,736.8v9c98.3,0,146.1-100.5,121.5-170.1C501,529.1,396,429.8,396,429.8s-105,99.3-121.5,145.9
	c-24.6,69.6,23.2,170.1,121.5,170.1"/>
<path id="XMLID_181_" class="st0" d="M396,26.7c-94.3,0-171,76.7-171,171s76.7,171,171,171c94.3,0,171-76.7,171-171
	S490.3,26.7,396,26.7z M396,338.6c-77.9,0-141-63.1-141-141s63.1-141,141-141s141,63.1,141,141S473.9,338.6,396,338.6z"/>
<path id="XMLID_186_" class="st0" d="M444,139L444,139l-29.6-7.2c-1.5-4-4.3-7.3-7.9-9.5L396,78.8v0l0,0l0,0v0l-10.6,43.4
	c-3.5,2.2-6.3,5.6-7.9,9.5L348,139h0l0,0l0,0h0l29.6,7.2c1.7,4.4,4.9,8,9,10.2l9.5,75.1v0l0,0l0,0v0l9.5-75.1
	c4.1-2.2,7.3-5.8,9-10.2L444,139L444,139L444,139L444,139z"/>
</svg>
