<?xml version="1.0" encoding="utf-8"?>
<!-- Generator: Adobe Illustrator 19.0.0, SVG Export Plug-In . SVG Version: 6.00 Build 0)  -->
<svg version="1.1" id="Layer_1" xmlns="http://www.w3.org/2000/svg" xmlns:xlink="http://www.w3.org/1999/xlink" x="0px" y="0px"
	 viewBox="0 0 792 792" style="enable-background:new 0 0 792 792;" xml:space="preserve">
<style type="text/css">
	.st0{fill:#272626;}
	.st1{fill:#FFFFFF;}
</style>
<path class="st0" d="M736.5,641.6h-681c-9.5,0-17.2-7.7-17.2-17.2v-27.9c0-9.5,7.7-17.2,17.2-17.2h681c9.5,0,17.2,7.7,17.2,17.2
	v27.9C753.7,633.9,746,641.6,736.5,641.6z"/>
<path class="st0" d="M743.2,181.4H48.8c-5.8,0-10.5-4.7-10.5-10.5v-2.1c0-5.8,4.7-10.5,10.5-10.5h694.5c5.8,0,10.5,4.7,10.5,10.5
	v2.1C753.7,176.7,749,181.4,743.2,181.4z"/>
<path class="st0" d="M347.3,558.5H45.2c-3.8,0-7-3.1-7-7v-9.1c0-3.8,3.1-7,7-7h302.1c3.8,0,7,3.1,7,7v9.1
	C354.3,555.4,351.1,558.5,347.3,558.5z"/>
<path class="st0" d="M746.8,558.5H444.7c-3.8,0-7-3.1-7-7v-9.1c0-3.8,3.1-7,7-7h302.1c3.8,0,7,3.1,7,7v9.1
	C753.7,555.4,750.6,558.5,746.8,558.5z"/>
<path class="st0" d="M736.5,271.6h-681c-9.5,0-17.2-7.7-17.2-17.2v-27.9c0-9.5,7.7-17.2,17.2-17.2h681c9.5,0,17.2,7.7,17.2,17.2
	v27.9C753.7,263.9,746,271.6,736.5,271.6z"/>
<polygon class="st0" points="50.6,535.4 196.3,298.2 342,535.4 "/>
<polygon class="st0" points="450,535.4 595.7,298.2 741.4,535.4 "/>
<polygon class="st0" points="480.4,300.7 396,438.2 311.6,300.7 "/>
<circle class="st1" cx="196.3" cy="403.9" r="19.7"/>
<circle class="st1" cx="595.7" cy="403.9" r="19.7"/>
</svg>
