<?xml version="1.0" encoding="utf-8"?>
<!-- Generator: Adobe Illustrator 19.0.0, SVG Export Plug-In . SVG Version: 6.00 Build 0)  -->
<svg version="1.1" id="Layer_1" xmlns="http://www.w3.org/2000/svg" xmlns:xlink="http://www.w3.org/1999/xlink" x="0px" y="0px"
	 viewBox="0 0 792 792" style="enable-background:new 0 0 792 792;" xml:space="preserve">
<style type="text/css">
	.st0{fill:#272626;}
</style>
<circle class="st0" cx="396" cy="477.7" r="53.3"/>
<circle class="st0" cx="77.3" cy="288" r="18.5"/>
<circle class="st0" cx="126" cy="239.2" r="18.5"/>
<circle class="st0" cx="174.3" cy="191" r="18.5"/>
<circle class="st0" cx="222.5" cy="142.7" r="18.5"/>
<circle class="st0" cx="271.2" cy="94.1" r="18.5"/>
<circle class="st0" cx="319.7" cy="45.6" r="18.5"/>
<circle class="st0" cx="467.9" cy="45.6" r="18.5"/>
<circle class="st0" cx="516.6" cy="94.3" r="18.5"/>
<circle class="st0" cx="564.9" cy="142.6" r="18.5"/>
<circle class="st0" cx="613.1" cy="190.8" r="18.5"/>
<circle class="st0" cx="661.8" cy="239.5" r="18.5"/>
<circle class="st0" cx="710.3" cy="288" r="18.5"/>
<path class="st0" d="M736.5,743.6h-681c-9.5,0-17.2-7.7-17.2-17.2v-27.9c0-9.5,7.7-17.2,17.2-17.2h681c9.5,0,17.2,7.7,17.2,17.2
	v27.9C753.7,735.9,746,743.6,736.5,743.6z"/>
<path class="st0" d="M736.5,649.6h-681c-9.5,0-17.2-7.7-17.2-17.2v-27.9c0-9.5,7.7-17.2,17.2-17.2h681c9.5,0,17.2,7.7,17.2,17.2
	v27.9C753.7,641.9,746,649.6,736.5,649.6z"/>
<path class="st0" d="M429.4,173.4L81.3,521.5c-4.9,4.9-14.2,3.3-21-3.4l-19.7-19.7c-6.7-6.7-8.2-16.1-3.4-21l348.1-348.1
	c4.9-4.9,14.2-3.3,21,3.4l19.7,19.7C432.8,159.2,434.3,168.5,429.4,173.4z"/>
<path class="st0" d="M707,521.5L358.9,173.4c-4.9-4.9-3.3-14.2,3.4-21l19.7-19.7c6.7-6.7,16.1-8.2,21-3.4L751,477.4
	c4.9,4.9,3.3,14.2-3.4,21l-19.7,19.7C721.2,524.8,711.8,526.3,707,521.5z"/>
<path class="st0" d="M404.8,55.6l-353,353c-2.9,2.9-8.7,2-12.8-2.1l-1.5-1.5c-4.1-4.1-5-9.8-2.1-12.8L388.5,39.2
	c2.9-2.9,8.7-2,12.8,2.1l1.5,1.5C406.8,46.9,407.7,52.6,404.8,55.6z"/>
<path class="st0" d="M735.9,408.6L382.8,55.5c-2.9-2.9-2-8.7,2.1-12.8l1.5-1.5c4.1-4.1,9.8-5,12.8-2.1l353.1,353.1
	c2.9,2.9,2,8.7-2.1,12.8l-1.5,1.5C744.5,410.6,738.8,411.5,735.9,408.6z"/>
</svg>
