<?xml version="1.0" encoding="utf-8"?>
<!-- Generator: Adobe Illustrator 19.0.0, SVG Export Plug-In . SVG Version: 6.00 Build 0)  -->
<svg version="1.1" id="Layer_1" xmlns="http://www.w3.org/2000/svg" xmlns:xlink="http://www.w3.org/1999/xlink" x="0px" y="0px"
	 viewBox="0 0 792 792" style="enable-background:new 0 0 792 792;" xml:space="preserve">
<style type="text/css">
	.st0{fill:none;stroke:#000000;stroke-width:2.8346;stroke-miterlimit:10;}
</style>
<path id="XMLID_9_" d="M529.1,160.2c0-18.9-15.5-33.7-35.2-33.7c-0.3,0-0.5,0-0.7,0h-24.8c-0.7,0-1.4-0.1-2.3-0.1
	c-17.5,0-31.3,10.6-35,25.6c-49.9,31.9-168.2,120-168.2,238.7c0,61.5,33.8,133.9,100.5,215.3c45.2,55.1,89.8,95,96.4,100.9
	c6,5.8,15.4,12.3,27.3,12.3l0,0c8.5,0,16.5-3.3,22.5-9.3c6.1-6.1,9.4-14.5,9.1-23.1c-0.4-12.5-7.8-20.7-12.1-24.5l-0.2-0.1
	c-0.9-0.8-89.1-78-89.1-194c0-102.8,67.9-236.8,89.2-276.2C519.8,187.2,529.1,174.8,529.1,160.2z M493.6,164.4c0,0-6.3,0.3-6.8,1.3
	c0,0-99.6,171.6-99.6,302.7S486.8,685,486.8,685s2.8,2.5,1.5,3.8c-2.2,2.2-8.1-3.8-8.1-3.8S292.9,521.9,292.9,390.8
	s174-225.2,174-225.2s0.5-0.5,0.5-1.2c0-1.8-1.1-1.3-4.2-1.3s-3.1-2.9-3.1-2.9c0-4.5,7.3-3.7,7.3-3.7h26.2c0,0,5.5-0.3,5.5,3.7
	S493.6,164.4,493.6,164.4z"/>
<path id="XMLID_8_" d="M452.4,82v59.7h56.2V82H452.4z M493.6,126.7h-26.2V97h26.2V126.7z"/>
<rect class="st0" width="792" height="792"/>
</svg>
