<?xml version="1.0" encoding="utf-8"?>
<!-- Generator: Adobe Illustrator 19.0.0, SVG Export Plug-In . SVG Version: 6.00 Build 0)  -->
<svg version="1.1" id="Layer_1" xmlns="http://www.w3.org/2000/svg" xmlns:xlink="http://www.w3.org/1999/xlink" x="0px" y="0px"
	 viewBox="0 0 792 792" style="enable-background:new 0 0 792 792;" xml:space="preserve">
<style type="text/css">
	.st0{fill:none;stroke:#000000;stroke-width:2.8346;stroke-miterlimit:10;}
</style>
<path id="XMLID_180_" d="M414,281.2c-79.5,0-144,64.5-144,144s64.5,144,144,144s144-64.5,144-144S493.5,281.2,414,281.2z M414,558.2
	c-73.5,0-133-59.5-133-133s59.5-133,133-133s133,59.5,133,133S487.5,558.2,414,558.2z"/>
<path id="XMLID_183_" d="M605.7,424.9c0-52.1-21.3-115-55.7-164c-17.9-25.5-38.9-46.7-60.7-61.2c-24.4-16.3-49.8-24.5-75.3-24.5
	s-50.9,8.2-75.3,24.5c-21.8,14.5-42.8,35.7-60.7,61.2c-34.3,49-55.7,111.8-55.7,164h0.2c0,0.1,0,0.2,0,0.3
	c0,105.8,85.8,191.6,191.6,191.6S605.7,531,605.7,425.2C605.7,425.1,605.7,425,605.7,424.9L605.7,424.9z M284.8,265.7
	c37.1-53,83-82.1,129.2-82.1s92.1,29.2,129.2,82.1c11.1,15.8,20.8,33.1,28.8,51c-34.5-50.1-92.3-83-157.8-83
	c-65.9,0-124,33.3-158.4,83.9C263.7,299.4,273.6,281.8,284.8,265.7z M414.1,584.4c-87.9,0-159.2-71.3-159.2-159.2
	S326.2,266,414.1,266s159.2,71.3,159.2,159.2S502,584.4,414.1,584.4z"/>
<rect class="st0" width="792" height="792"/>
</svg>
