<?xml version="1.0" encoding="utf-8"?>
<!-- Generator: Adobe Illustrator 19.0.0, SVG Export Plug-In . SVG Version: 6.00 Build 0)  -->
<svg version="1.1" id="Layer_1" xmlns="http://www.w3.org/2000/svg" xmlns:xlink="http://www.w3.org/1999/xlink" x="0px" y="0px"
	 viewBox="0 0 792 792" style="enable-background:new 0 0 792 792;" xml:space="preserve">
<style type="text/css">
	.st0{fill:#272626;}
</style>
<polygon class="st0" points="316.3,145.2 236.6,274.9 156.9,145.2 "/>
<polygon class="st0" points="396,15.4 316.3,145.2 236.6,15.4 "/>
<polygon class="st0" points="555.4,15.4 475.7,145.2 396,15.4 "/>
<polygon class="st0" points="475.7,145.2 396,274.9 316.3,145.2 "/>
<polygon class="st0" points="635.1,145.2 555.4,274.9 475.7,145.2 "/>
<polygon class="st0" points="475.7,646.8 555.4,517.1 635.1,646.8 "/>
<polygon class="st0" points="396,776.6 475.7,646.8 555.4,776.6 "/>
<polygon class="st0" points="236.6,776.6 316.3,646.8 396,776.6 "/>
<polygon class="st0" points="316.3,646.8 396,517.1 475.7,646.8 "/>
<polygon class="st0" points="156.9,646.8 236.6,517.1 316.3,646.8 "/>
<circle class="st0" cx="316.3" cy="328.2" r="53.3"/>
<circle class="st0" cx="316.3" cy="469.2" r="53.3"/>
<circle class="st0" cx="475.7" cy="328.2" r="53.3"/>
<circle class="st0" cx="475.7" cy="469.2" r="53.3"/>
</svg>
