<?xml version="1.0" encoding="utf-8"?>
<!-- Generator: Adobe Illustrator 19.0.0, SVG Export Plug-In . SVG Version: 6.00 Build 0)  -->
<svg version="1.1" id="Layer_1" xmlns="http://www.w3.org/2000/svg" xmlns:xlink="http://www.w3.org/1999/xlink" x="0px" y="0px"
	 viewBox="0 0 792 792" style="enable-background:new 0 0 792 792;" xml:space="preserve">
<style type="text/css">
	.st0{fill:none;stroke:#000000;stroke-width:2.8346;stroke-miterlimit:10;}
</style>
<path id="XMLID_263_" d="M662.3,512.5c-23.1-110.7-132.6-118.4-181.1-102.2l-2.7-6.4c6-9.6,15.5-31.8,12.2-74.1
	c-1.9-24.3-24.8-67.1-68-127.3c-26.5-36.8-52.8-69.3-60.9-79.2c1.8-33,3-60.1,3.3-67.2l-19.8-0.9c-2.3,53.3-9.6,196.3-15.4,217
	c-4.3,15.2-10.9,19.9-18.6,25.4c-3.6,2.6-7.4,5.3-10.8,9c-4.3,4.8-6.6,12.1-7.8,19.6C202.9,302.4,124.3,401,124.3,470
	c0,71.5,28.4,232.4,151.4,232.4s140.9-122,140.9-209.2c0-81.6-57.8-138.7-104.9-160.1c0.5-6.1,1.7-11.2,3.5-13.2
	c1.9-2.1,4.5-4,7.5-6.1c8.5-6,20.1-14.3,26.2-36.2c4-14.3,8.1-71.8,11.2-124.8c40.2,50.4,107.9,142.3,110.8,178.6
	c3.6,45.9-9.7,63-10.9,64.3l-4.8,4.4l8,18.7c-49.1,30.9-43.3,106.1-42,173.3c1.4,74.3,92.5,157.7,150.4,154.9
	S685.4,623.6,662.3,512.5z M383.5,497.6c0,67.5-13.8,161.8-108.9,161.8S157.5,535,157.5,479.7s65-134.9,137.4-108.9
	C332.4,384.2,383.5,430.1,383.5,497.6z M564.4,702.3c-42.8,2.1-110.2-59.6-111.3-114.6c-1-55-6.2-117.2,44.1-134.3
	c35.7-12.2,117.2-6.7,134.3,75.5C648.7,611,607.2,700.3,564.4,702.3z"/>
<rect class="st0" width="792" height="792"/>
</svg>
