<?xml version="1.0" encoding="utf-8"?>
<!-- Generator: Adobe Illustrator 19.0.0, SVG Export Plug-In . SVG Version: 6.00 Build 0)  -->
<svg version="1.1" id="Layer_1" xmlns="http://www.w3.org/2000/svg" xmlns:xlink="http://www.w3.org/1999/xlink" x="0px" y="0px"
	 viewBox="0 0 792 792" style="enable-background:new 0 0 792 792;" xml:space="preserve">
<style type="text/css">
	.st0{fill:none;stroke:#000000;stroke-width:2.8346;stroke-miterlimit:10;}
</style>
<path id="XMLID_112_" d="M396,73.5c-69.2,0-125.2,241.8-125.2,342.5c0,189.1,0,342.5,125.2,342.5S521.2,605.2,521.2,416
	C521.2,320,465.2,73.5,396,73.5z M396,670c-92.9,0-92.9-113.7-92.9-254c0-74.7,41.6-254,92.9-254s92.9,182.8,92.9,254
	C488.9,556.3,488.9,670,396,670z"/>
<path id="XMLID_2_" d="M346.5,593.8h-9.3c-6.3,0-11.5-5.2-11.5-11.5v-2.9c0-6.3,5.2-11.5,11.5-11.5h9.3c6.3,0,11.5,5.2,11.5,11.5
	v2.9C358,588.6,352.8,593.8,346.5,593.8z"/>
<path id="XMLID_95_" d="M382.6,593.8h-9.3c-6.3,0-11.5-5.2-11.5-11.5v-2.9c0-6.3,5.2-11.5,11.5-11.5h9.3c6.3,0,11.5,5.2,11.5,11.5
	v2.9C394.1,588.6,388.9,593.8,382.6,593.8z"/>
<path id="XMLID_109_" d="M418.7,593.8h-9.3c-6.3,0-11.5-5.2-11.5-11.5v-2.9c0-6.3,5.2-11.5,11.5-11.5h9.3c6.3,0,11.5,5.2,11.5,11.5
	v2.9C430.2,588.6,425.1,593.8,418.7,593.8z"/>
<path id="XMLID_115_" d="M400.7,564.1h-9.3c-6.3,0-11.5-5.2-11.5-11.5v-2.9c0-6.3,5.2-11.5,11.5-11.5h9.3c6.3,0,11.5,5.2,11.5,11.5
	v2.9C412.2,559,407,564.1,400.7,564.1z"/>
<path id="XMLID_113_" d="M400.7,622.8h-9.3c-6.3,0-11.5-5.2-11.5-11.5v-2.9c0-6.3,5.2-11.5,11.5-11.5h9.3c6.3,0,11.5,5.2,11.5,11.5
	v2.9C412.2,617.7,407,622.8,400.7,622.8z"/>
<path id="XMLID_117_" d="M364.6,564.1h-9.3c-6.3,0-11.5-5.2-11.5-11.5v-2.9c0-6.3,5.2-11.5,11.5-11.5h9.3c6.3,0,11.5,5.2,11.5,11.5
	v2.9C376.1,559,370.9,564.1,364.6,564.1z"/>
<path id="XMLID_118_" d="M436.9,564.1h-9.3c-6.3,0-11.5-5.2-11.5-11.5v-2.9c0-6.3,5.2-11.5,11.5-11.5h9.3c6.3,0,11.5,5.2,11.5,11.5
	v2.9C448.4,559,443.2,564.1,436.9,564.1z"/>
<path id="XMLID_11_" d="M364.6,622.5h-9.3c-6.3,0-11.5-5.2-11.5-11.5v-2.9c0-6.3,5.2-11.5,11.5-11.5h9.3c6.3,0,11.5,5.2,11.5,11.5
	v2.9C376.1,617.3,370.9,622.5,364.6,622.5z"/>
<path id="XMLID_10_" d="M436.9,622.5h-9.3c-6.3,0-11.5-5.2-11.5-11.5v-2.9c0-6.3,5.2-11.5,11.5-11.5h9.3c6.3,0,11.5,5.2,11.5,11.5
	v2.9C448.4,617.3,443.2,622.5,436.9,622.5z"/>
<path id="XMLID_125_" d="M400.7,505.1h-9.3c-6.3,0-11.5-5.2-11.5-11.5v-2.9c0-6.3,5.2-11.5,11.5-11.5h9.3c6.3,0,11.5,5.2,11.5,11.5
	v2.9C412.2,499.9,407,505.1,400.7,505.1z"/>
<path id="XMLID_124_" d="M364.6,505.1h-9.3c-6.3,0-11.5-5.2-11.5-11.5v-2.9c0-6.3,5.2-11.5,11.5-11.5h9.3c6.3,0,11.5,5.2,11.5,11.5
	v2.9C376.1,499.9,370.9,505.1,364.6,505.1z"/>
<path id="XMLID_128_" d="M473.1,505.1h-9.3c-6.3,0-11.5-5.2-11.5-11.5v-2.9c0-6.3,5.2-11.5,11.5-11.5h9.3c6.3,0,11.5,5.2,11.5,11.5
	v2.9C484.6,499.9,479.4,505.1,473.1,505.1z"/>
<path id="XMLID_127_" d="M328.4,505.1h-9.3c-6.3,0-11.5-5.2-11.5-11.5v-2.9c0-6.3,5.2-11.5,11.5-11.5h9.3c6.3,0,11.5,5.2,11.5,11.5
	v2.9C339.9,499.9,334.7,505.1,328.4,505.1z"/>
<path id="XMLID_123_" d="M436.9,505.1h-9.3c-6.3,0-11.5-5.2-11.5-11.5v-2.9c0-6.3,5.2-11.5,11.5-11.5h9.3c6.3,0,11.5,5.2,11.5,11.5
	v2.9C448.4,499.9,443.2,505.1,436.9,505.1z"/>
<path id="XMLID_137_" d="M400.7,446.2h-9.3c-6.3,0-11.5-5.2-11.5-11.5v-2.9c0-6.3,5.2-11.5,11.5-11.5h9.3c6.3,0,11.5,5.2,11.5,11.5
	v2.9C412.2,441,407,446.2,400.7,446.2z"/>
<path id="XMLID_136_" d="M364.6,446.2h-9.3c-6.3,0-11.5-5.2-11.5-11.5v-2.9c0-6.3,5.2-11.5,11.5-11.5h9.3c6.3,0,11.5,5.2,11.5,11.5
	v2.9C376.1,441,370.9,446.2,364.6,446.2z"/>
<path id="XMLID_135_" d="M473.1,446.2h-9.3c-6.3,0-11.5-5.2-11.5-11.5v-2.9c0-6.3,5.2-11.5,11.5-11.5h9.3c6.3,0,11.5,5.2,11.5,11.5
	v2.9C484.6,441,479.4,446.2,473.1,446.2z"/>
<path id="XMLID_134_" d="M328.4,446.2h-9.3c-6.3,0-11.5-5.2-11.5-11.5v-2.9c0-6.3,5.2-11.5,11.5-11.5h9.3c6.3,0,11.5,5.2,11.5,11.5
	v2.9C339.9,441,334.7,446.2,328.4,446.2z"/>
<path id="XMLID_133_" d="M436.9,446.2h-9.3c-6.3,0-11.5-5.2-11.5-11.5v-2.9c0-6.3,5.2-11.5,11.5-11.5h9.3c6.3,0,11.5,5.2,11.5,11.5
	v2.9C448.4,441,443.2,446.2,436.9,446.2z"/>
<path id="XMLID_144_" d="M400.7,387.2h-9.3c-6.3,0-11.5-5.2-11.5-11.5v-2.9c0-6.3,5.2-11.5,11.5-11.5h9.3c6.3,0,11.5,5.2,11.5,11.5
	v2.9C412.2,382,407,387.2,400.7,387.2z"/>
<path id="XMLID_143_" d="M364.6,387.2h-9.3c-6.3,0-11.5-5.2-11.5-11.5v-2.9c0-6.3,5.2-11.5,11.5-11.5h9.3c6.3,0,11.5,5.2,11.5,11.5
	v2.9C376.1,382,370.9,387.2,364.6,387.2z"/>
<path id="XMLID_142_" d="M436.9,387.2h-9.3c-6.3,0-11.5-5.2-11.5-11.5v-2.9c0-6.3,5.2-11.5,11.5-11.5h9.3c6.3,0,11.5,5.2,11.5,11.5
	v2.9C448.4,382,443.2,387.2,436.9,387.2z"/>
<path id="XMLID_6_" d="M400.7,327.5h-9.3c-6.3,0-11.5-5.2-11.5-11.5v-2.9c0-6.3,5.2-11.5,11.5-11.5h9.3c6.3,0,11.5,5.2,11.5,11.5
	v2.9C412.2,322.3,407,327.5,400.7,327.5z"/>
<path id="XMLID_9_" d="M400.7,267.8h-9.3c-6.3,0-11.5-5.2-11.5-11.5v-2.9c0-6.3,5.2-11.5,11.5-11.5h9.3c6.3,0,11.5,5.2,11.5,11.5
	v2.9C412.2,262.7,407,267.8,400.7,267.8z"/>
<path id="XMLID_5_" d="M364.6,327.5h-9.3c-6.3,0-11.5-5.2-11.5-11.5v-2.9c0-6.3,5.2-11.5,11.5-11.5h9.3c6.3,0,11.5,5.2,11.5,11.5
	v2.9C376.1,322.3,370.9,327.5,364.6,327.5z"/>
<path id="XMLID_4_" d="M436.9,327.5h-9.3c-6.3,0-11.5-5.2-11.5-11.5v-2.9c0-6.3,5.2-11.5,11.5-11.5h9.3c6.3,0,11.5,5.2,11.5,11.5
	v2.9C448.4,322.3,443.2,327.5,436.9,327.5z"/>
<path id="XMLID_114_" d="M454.9,593.8h-9.3c-6.3,0-11.5-5.2-11.5-11.5v-2.9c0-6.3,5.2-11.5,11.5-11.5h9.3c6.3,0,11.5,5.2,11.5,11.5
	v2.9C466.4,588.6,461.2,593.8,454.9,593.8z"/>
<path id="XMLID_122_" d="M346.5,534.7h-9.3c-6.3,0-11.5-5.2-11.5-11.5v-2.9c0-6.3,5.2-11.5,11.5-11.5h9.3c6.3,0,11.5,5.2,11.5,11.5
	v2.9C358,529.5,352.8,534.7,346.5,534.7z"/>
<path id="XMLID_121_" d="M382.6,534.7h-9.3c-6.3,0-11.5-5.2-11.5-11.5v-2.9c0-6.3,5.2-11.5,11.5-11.5h9.3c6.3,0,11.5,5.2,11.5,11.5
	v2.9C394.1,529.5,388.9,534.7,382.6,534.7z"/>
<path id="XMLID_120_" d="M418.7,534.7h-9.3c-6.3,0-11.5-5.2-11.5-11.5v-2.9c0-6.3,5.2-11.5,11.5-11.5h9.3c6.3,0,11.5,5.2,11.5,11.5
	v2.9C430.2,529.5,425.1,534.7,418.7,534.7z"/>
<path id="XMLID_119_" d="M454.9,534.7h-9.3c-6.3,0-11.5-5.2-11.5-11.5v-2.9c0-6.3,5.2-11.5,11.5-11.5h9.3c6.3,0,11.5,5.2,11.5,11.5
	v2.9C466.4,529.5,461.2,534.7,454.9,534.7z"/>
<path id="XMLID_132_" d="M346.5,475.7h-9.3c-6.3,0-11.5-5.2-11.5-11.5v-2.9c0-6.3,5.2-11.5,11.5-11.5h9.3c6.3,0,11.5,5.2,11.5,11.5
	v2.9C358,470.5,352.8,475.7,346.5,475.7z"/>
<path id="XMLID_131_" d="M382.6,475.7h-9.3c-6.3,0-11.5-5.2-11.5-11.5v-2.9c0-6.3,5.2-11.5,11.5-11.5h9.3c6.3,0,11.5,5.2,11.5,11.5
	v2.9C394.1,470.5,388.9,475.7,382.6,475.7z"/>
<path id="XMLID_130_" d="M418.7,475.7h-9.3c-6.3,0-11.5-5.2-11.5-11.5v-2.9c0-6.3,5.2-11.5,11.5-11.5h9.3c6.3,0,11.5,5.2,11.5,11.5
	v2.9C430.2,470.5,425.1,475.7,418.7,475.7z"/>
<path id="XMLID_129_" d="M454.9,475.7h-9.3c-6.3,0-11.5-5.2-11.5-11.5v-2.9c0-6.3,5.2-11.5,11.5-11.5h9.3c6.3,0,11.5,5.2,11.5,11.5
	v2.9C466.4,470.5,461.2,475.7,454.9,475.7z"/>
<path id="XMLID_140_" d="M346.5,416.6h-9.3c-6.3,0-11.5-5.2-11.5-11.5v-2.9c0-6.3,5.2-11.5,11.5-11.5h9.3c6.3,0,11.5,5.2,11.5,11.5
	v2.9C358,411.5,352.8,416.6,346.5,416.6z"/>
<path id="XMLID_139_" d="M382.6,416.6h-9.3c-6.3,0-11.5-5.2-11.5-11.5v-2.9c0-6.3,5.2-11.5,11.5-11.5h9.3c6.3,0,11.5,5.2,11.5,11.5
	v2.9C394.1,411.5,388.9,416.6,382.6,416.6z"/>
<path id="XMLID_138_" d="M418.7,416.6h-9.3c-6.3,0-11.5-5.2-11.5-11.5v-2.9c0-6.3,5.2-11.5,11.5-11.5h9.3c6.3,0,11.5,5.2,11.5,11.5
	v2.9C430.2,411.5,425.1,416.6,418.7,416.6z"/>
<path id="XMLID_126_" d="M454.9,416.6h-9.3c-6.3,0-11.5-5.2-11.5-11.5v-2.9c0-6.3,5.2-11.5,11.5-11.5h9.3c6.3,0,11.5,5.2,11.5,11.5
	v2.9C466.4,411.5,461.2,416.6,454.9,416.6z"/>
<path id="XMLID_148_" d="M346.5,357.3h-9.3c-6.3,0-11.5-5.2-11.5-11.5v-2.9c0-6.3,5.2-11.5,11.5-11.5h9.3c6.3,0,11.5,5.2,11.5,11.5
	v2.9C358,352.1,352.8,357.3,346.5,357.3z"/>
<path id="XMLID_147_" d="M382.6,357.3h-9.3c-6.3,0-11.5-5.2-11.5-11.5v-2.9c0-6.3,5.2-11.5,11.5-11.5h9.3c6.3,0,11.5,5.2,11.5,11.5
	v2.9C394.1,352.1,388.9,357.3,382.6,357.3z"/>
<path id="XMLID_146_" d="M418.7,357.3h-9.3c-6.3,0-11.5-5.2-11.5-11.5v-2.9c0-6.3,5.2-11.5,11.5-11.5h9.3c6.3,0,11.5,5.2,11.5,11.5
	v2.9C430.2,352.1,425.1,357.3,418.7,357.3z"/>
<path id="XMLID_8_" d="M382.6,297.9h-9.3c-6.3,0-11.5-5.2-11.5-11.5v-2.9c0-6.3,5.2-11.5,11.5-11.5h9.3c6.3,0,11.5,5.2,11.5,11.5
	v2.9C394.1,292.8,388.9,297.9,382.6,297.9z"/>
<path id="XMLID_7_" d="M418.7,297.9h-9.3c-6.3,0-11.5-5.2-11.5-11.5v-2.9c0-6.3,5.2-11.5,11.5-11.5h9.3c6.3,0,11.5,5.2,11.5,11.5
	v2.9C430.2,292.8,425.1,297.9,418.7,297.9z"/>
<path id="XMLID_145_" d="M454.9,357.3h-9.3c-6.3,0-11.5-5.2-11.5-11.5v-2.9c0-6.3,5.2-11.5,11.5-11.5h9.3c6.3,0,11.5,5.2,11.5,11.5
	v2.9C466.4,352.1,461.2,357.3,454.9,357.3z"/>
<rect class="st0" width="792" height="792"/>
</svg>
