<?xml version="1.0" encoding="utf-8"?>
<!-- Generator: Adobe Illustrator 19.0.0, SVG Export Plug-In . SVG Version: 6.00 Build 0)  -->
<svg version="1.1" id="Layer_1" xmlns="http://www.w3.org/2000/svg" xmlns:xlink="http://www.w3.org/1999/xlink" x="0px" y="0px"
	 viewBox="0 0 792 792" style="enable-background:new 0 0 792 792;" xml:space="preserve">
<style type="text/css">
	.st0{fill:none;stroke:#000000;stroke-width:2.8346;stroke-miterlimit:10;}
</style>
<path id="XMLID_181_" d="M379.4,540.3c-27.5-0.7-103.8,64.3-103.5,82.5c0.3,18.2,11.4,70,37.4,94.3c25.9,24.2,64,24.6,64,24.6h4.2
	c0,0,38.1-0.3,64-24.6c25.9-24.2,37-76.1,37.4-94.3C483.2,604.6,406.9,539.6,379.4,540.3z M284.9,627.5c0-16.7,13.6-30.3,30.3-30.3
	s30.3,13.6,30.3,30.3s-13.6,30.3-30.3,30.3S284.9,644.2,284.9,627.5z M345.5,721c-16.7,0-30.3-13.6-30.3-30.3s13.6-30.3,30.3-30.3
	s30.3,13.6,30.3,30.3C375.8,707.5,362.2,721,345.5,721z M349.1,583c0-16.7,13.6-30.3,30.3-30.3s30.3,13.6,30.3,30.3
	s-13.6,30.3-30.3,30.3S349.1,599.7,349.1,583z M411.1,721c-16.7,0-30.3-13.6-30.3-30.3s13.6-30.3,30.3-30.3s30.3,13.6,30.3,30.3
	C441.4,707.5,427.9,721,411.1,721z M433.7,657.8c-16.7,0-30.3-13.6-30.3-30.3s13.6-30.3,30.3-30.3s30.3,13.6,30.3,30.3
	S450.4,657.8,433.7,657.8z"/>
<path id="XMLID_187_" d="M455.8,240.3c0-0.5-1.1-13.6-11.3-26.6c-3.6-4.6-8.7-9.5-15.8-13.8v-59.3l-3.4-1.5
	c-1-0.4-24.1-10.5-46.3-10.5s-45.3,10.1-46.3,10.5l-3.4,1.5v59.3c-7.1,4.3-12.2,9.2-15.8,13.8c-10.2,13-11.3,26-11.3,26.6l-26.3,384
	l10.3-16.8L312.5,241c0.1-1.7,4.1-42.7,66.5-42.7s66.4,41,66.5,42.7l26.3,366.5l11,15.3L455.8,240.3z M340.7,194.4v-46.2
	c6.9-2.6,23.2-8.2,38.4-8.2c15.2,0,31.5,5.5,38.4,8.2v46.2c-9.9-3.8-22.4-6.4-38.4-6.4S350.6,190.6,340.7,194.4z"/>
<rect class="st0" width="792" height="792"/>
</svg>
